<?xml version="1.0" encoding="UTF-8" standalone="no"?>
<!-- Created with Inkscape (http://www.inkscape.org/) -->

<svg
   version="1.1"
   id="svg1"
   width="32"
   height="32"
   viewBox="0 0 32 32"
   sodipodi:docname="GG - logo.svg"
   inkscape:version="1.4 (e7c3feb100, 2024-10-09)"
   xmlns:inkscape="http://www.inkscape.org/namespaces/inkscape"
   xmlns:sodipodi="http://sodipodi.sourceforge.net/DTD/sodipodi-0.dtd"
   xmlns="http://www.w3.org/2000/svg"
   xmlns:svg="http://www.w3.org/2000/svg">
  <defs
     id="defs1" />
  <sodipodi:namedview
     id="namedview1"
     pagecolor="#ffffff"
     bordercolor="#000000"
     borderopacity="0.25"
     inkscape:showpageshadow="2"
     inkscape:pageopacity="0.0"
     inkscape:pagecheckerboard="0"
     inkscape:deskcolor="#d1d1d1"
     inkscape:zoom="18.451068"
     inkscape:cx="36.935532"
     inkscape:cy="17.749651"
     inkscape:window-width="1920"
     inkscape:window-height="1043"
     inkscape:window-x="0"
     inkscape:window-y="0"
     inkscape:window-maximized="1"
     inkscape:current-layer="g1" />
  <g
     inkscape:groupmode="layer"
     inkscape:label="Image"
     id="g1">
    <g
       id="g3"
       transform="matrix(0.0668517,0,0,0.0668517,-18.22807,-18.22807)">
      <circle
         style="fill:#217844"
         id="path2"
         cx="512"
         cy="512"
         r="239.33574" />
      <path
         style="fill:#ffffff;stroke-width:0.5"
         d="m 509.08695,689.42473 c -1.54044,-1.54043 -1.56645,-3.27978 -0.07,-4.68557 3.21383,-3.01923 7.61778,1.15616 5.06442,4.80159 -1.06756,1.52416 -3.40858,1.46978 -4.99437,-0.11602 z m -99.7761,-10.71933 c -5.52712,-4.79559 -13.9701,-13.11788 -12.45118,-12.27318 12.05618,6.70458 23.22203,17.21979 18.28528,17.21979 -0.0731,0 -2.69846,-2.22598 -5.8341,-4.94661 z m 11.26877,-1.40537 c 0.4276,-1.11432 -0.46776,-2.36216 -3.33028,-4.64133 -10.42565,-8.30103 -40.38967,-36.70368 -40.38967,-38.28504 0,-4.10969 1.58282,-3.3398 9.89491,4.8129 6.91816,6.78551 17.50787,16.39104 33.03947,29.96888 l 4.68438,4.09512 2.66753,-2.63439 c 2.94278,-2.90623 2.95341,-3.06068 0.30479,-4.4309 -1.01259,-0.52385 -4.20358,-3.16583 -7.09108,-5.87107 -2.8875,-2.70524 -7.1625,-6.58902 -9.5,-8.63063 -2.3375,-2.04161 -6.95,-6.32784 -10.25,-9.52495 -13.52805,-13.10628 -15.80443,-14.99884 -16.92351,-14.0701 -0.36767,0.30515 -0.81654,0.40676 -0.99749,0.22582 -0.87136,-0.87136 -0.0952,-2.54902 2.296,-4.96257 1.44375,-1.45726 4.7625,-4.94601 7.375,-7.75277 10.33681,-11.10541 13.41624,-14.17249 17.5,-17.42981 21.80506,-17.39229 44.25693,-21.25555 75.75,-13.03416 6.70816,1.75119 11.78653,2.49387 21.75,3.1808 l 1.25,0.0862 -0.15739,-6.75 c -0.12816,-5.4964 -0.30443,-6.84286 -0.94912,-7.25 -1.23091,-0.77736 -5.93035,-4.90714 -13.57074,-11.9257 -9.37532,-8.61229 -8.63762,-8.17353 -11.21264,-6.66886 -23.35475,13.64704 -61.19626,-5.47553 -82.8017,-41.84244 -9.73062,-16.37885 -18.83214,-50.75818 -14.10709,-53.28695 4.02183,-2.15241 28.9273,3.69835 50.54868,11.87483 40.20408,15.20384 60.94533,42.55794 53.72135,70.84912 -0.7022,2.75 -1.39508,5.46488 -1.53975,6.03306 -0.29342,1.15246 18.28814,19.21694 19.76701,19.21694 1.16243,0 0.0464,-70.11274 -1.13713,-71.44303 -0.58381,-0.65617 -2.87759,-2.79367 -5.09729,-4.75 -2.2197,-1.95634 -7.47855,-6.68566 -11.68634,-10.5096 l -7.65053,-6.95263 -3.06366,1.14339 c -30.34103,11.32355 -71.38624,-27.40955 -73.18061,-69.05828 -0.33899,-7.8681 -0.49233,-7.71763 7.40489,-7.26578 20.48724,1.17219 34.76332,6.19894 54.60015,19.22524 19.29713,12.6719 27.28348,33.49359 18.82546,49.08101 l -1.5083,2.77968 2.64738,2.49039 c 1.45605,1.36972 6.45571,6.15097 11.11034,10.625 4.65463,4.47403 8.64333,8.13461 8.86377,8.13461 0.22044,0 0.26422,-12.99375 0.0973,-28.875 -0.3503,-33.32525 0.41392,-29.27749 -6.42402,-34.02541 -2.2,-1.52757 -7.35116,-6.10424 -11.44703,-10.17037 l -7.44704,-7.39297 -4.55296,0.29736 c -15.11416,0.98713 -32.30326,-10.85427 -37.46827,-25.81153 -1.67296,-4.84468 -2.28891,-13.54993 -1.60457,-22.67767 l 0.3632,-4.84441 1.57833,0.006 c 7.45114,0.028 26.84209,6.79905 35.02409,12.22995 11.20851,7.43978 15.9551,21.46481 11.27928,33.32748 -0.56072,1.42256 -0.95324,2.86902 -0.87226,3.21435 0.33908,1.44596 19.78739,20.72227 20.9072,20.72227 0.31106,0 0.49003,-6.64122 0.49003,-18.1841 v -18.1841 l -3.3037,-1.93207 c -18.09442,-10.58202 -18.21229,-33.43898 -0.26726,-51.82473 6.08643,-6.23591 5.82334,-6.23591 12.18201,0 9.59682,9.41154 12.55731,15.72511 12.60195,26.875 l 0.026,6.5 -2.11951,4.62568 c -1.16571,2.54413 -2.11949,4.83179 -2.11949,5.0837 0,1.3956 -5.94718,7.1981 -8.8344,8.61948 -3.88557,1.91285 -3.54304,-0.29602 -3.20543,20.67114 l 0.28983,18 3.5,-3.20158 c 1.925,-1.76086 6.58231,-6.23114 10.34957,-9.93396 l 6.84956,-6.73239 -1.2233,-4.56604 c -4.42369,-16.51163 3.4049,-31.07693 20.27417,-37.7206 7.92524,-3.12122 21.13938,-6.70546 26.5,-7.18793 l 1.75,-0.1575 0.3312,2.5 c 3.81232,28.77683 -13.14112,51.15651 -38.48195,50.79874 l -5.65074,-0.0798 -2.83285,2.64052 c -1.55807,1.45228 -5.42773,5.11806 -8.59925,8.14616 -3.17153,3.02811 -7.22891,6.59479 -9.01641,7.92596 -1.7875,1.33117 -3.42254,2.72168 -3.63342,3.09 -1.09799,1.91778 -0.93512,57.7284 0.16846,57.7284 1.64052,0 21.38945,-20.65045 20.72253,-21.66849 -13.52607,-20.64736 7.43448,-51.73371 43.07803,-63.8885 14.00736,-4.77665 34.6454,-7.69683 36.49731,-5.16419 3.53051,4.82826 -3.89248,33.01283 -11.58071,43.97118 -0.96468,1.375 -2.48482,3.59127 -3.37808,4.92504 -14.04943,20.97789 -39.78834,32.62318 -58.25883,26.35858 l -2.86529,-0.97181 -1.75,1.59074 c -0.9625,0.8749 -4.7875,4.52183 -8.5,8.10427 -3.7125,3.58245 -8.49375,8.1273 -10.625,10.09967 l -3.875,3.58613 v 34.77869 c 0,19.12828 0.13054,34.77869 0.29009,34.77869 1.35432,0 19.26186,-17.86592 19.03317,-18.98894 -0.14123,-0.69358 -0.74602,-3.17356 -1.34397,-5.51106 -5.49391,-21.47683 8.73321,-47.77482 33.52071,-61.96103 12.2761,-7.02577 31.81437,-14.26976 48.05352,-17.81628 22.15561,-4.83863 24.24072,-4.48534 23.76895,4.02731 -0.7765,14.0114 -10.22834,41.54453 -16.8212,49 -0.48636,0.55 -1.25454,1.7325 -1.70706,2.62777 -0.45251,0.89528 -2.51072,3.82028 -4.57378,6.5 -12.20547,15.85373 -20.32064,22.32242 -37.47043,29.86806 -10.76581,4.73678 -25.48357,4.84537 -36.37714,0.26838 -4.86538,-2.04422 -3.77106,-2.60081 -13.12286,6.67457 -3.025,3.00028 -7.24375,6.80909 -9.375,8.46402 l -3.875,3.00897 v 6.89735 6.89734 l 19.625,0.14677 c 19.30549,0.14438 19.67274,0.16602 22.5574,1.32917 11.89607,4.79672 11.25496,18.05974 -1.17045,24.21384 l -3.23806,1.60376 -18.85003,0.16188 -18.85003,0.16189 -0.16191,3.90619 -0.16192,3.9062 2.91662,0.3036 c 35.00213,3.64351 55.7658,-3.63581 72.56485,-25.43976 16.22976,-21.06504 17.9459,-23.52077 18.64854,-26.68537 1.74821,-7.87373 -7.61694,-5.41388 -12.75269,3.34961 -0.71613,1.22197 -3.63715,5.70868 -6.49116,9.97047 -2.85401,4.26178 -5.84724,9.05245 -6.65163,10.64593 -2.0724,4.10541 -4.43052,5.46592 -6.65482,3.83947 -0.99401,-0.72684 -0.40762,-3.28965 1.17151,-5.12011 1.55279,-1.79992 4.41268,-7.46153 4.67253,-9.25 0.13983,-0.9625 0.4088,-2.8208 0.5977,-4.12954 1.0929,-7.57186 -8.14817,-2.85825 -10.54232,5.37734 -1.45999,5.0222 -3.76282,6.50298 -5.81701,3.74048 -2.3202,-3.12022 5.98691,-15.79155 11.39589,-17.38283 5.25054,-1.54467 9.00488,0.62413 9.667,5.58441 l 0.27499,2.06014 3.5,-6.22511 c 5.46539,-9.72076 9.29112,-13.02489 15.08098,-13.02489 4.89502,0 7.16902,1.75761 7.16902,5.54105 v 1.95926 l 4.875,-4.93679 c 6.65169,-6.73598 12.58508,-8.80414 17.6328,-6.14612 4.83004,2.54339 4.50145,5.7573 -1.63352,15.97713 -2.59361,4.32051 -5.45961,9.20547 -6.36889,10.85547 l -1.65325,3 2.19893,-2.09302 c 14.14909,-13.46758 28.43964,-0.99523 14.5902,12.73388 -31.34077,31.0685 -36.80752,35.86641 -44.51065,39.06494 -1.85934,0.77204 -5.40562,2.68302 -7.88062,4.24662 -2.475,1.56359 -9.7875,5.4524 -16.25,8.64178 -6.4625,3.18939 -12.65,6.40666 -13.75,7.14948 -20.88239,14.1018 -29.24323,15.96091 -57.75,12.84125 -8.9375,-0.97808 -18.1625,-1.91563 -20.5,-2.08343 -2.3375,-0.1678 -8.3,-0.75775 -13.25,-1.311 -22.38431,-2.50181 -31.20396,-0.8792 -40.41698,7.43578 -3.13785,2.83198 -7.21915,4.85116 -6.61307,3.27174 z m 113.85697,-11.96691 c 3.97927,-1.18131 7.96524,-3.30217 14.92308,-7.94028 3.4375,-2.29145 10.6375,-6.6164 16,-9.61101 5.3625,-2.9946 12,-6.91574 14.75,-8.71364 2.75,-1.79791 6.30915,-4.0333 7.90921,-4.96755 1.60006,-0.93425 3.69911,-2.55182 4.66455,-3.5946 l 1.75535,-1.89597 -1.07083,-2.05443 c -0.58896,-1.12994 -2.46301,-3.65772 -4.16455,-5.6173 -1.70155,-1.95958 -3.96226,-4.71002 -5.02381,-6.1121 l -1.93008,-2.54923 -4.00097,2.86583 c -14.37691,10.29792 -30.33331,15.72256 -43.38887,14.75073 -1.7875,-0.13306 -8.7625,-0.59671 -15.5,-1.03034 -13.62216,-0.87673 -20.78238,-1.81678 -23.16348,-3.0411 -2.42845,-1.24867 -6.85323,-4.79076 -9.15376,-7.32771 -1.8978,-2.09284 -2.31539,-2.30776 -5.09498,-2.62224 -3.02904,-0.34269 -3.84992,-0.95525 -3.27787,-2.44599 0.81728,-2.12979 10.73816,-3.03584 32.49139,-2.96735 l 18.05129,0.0568 0.32168,-6.30683 c 0.17692,-3.46876 0.32259,-7.23264 0.3237,-8.36417 l 0.002,-2.05734 -14.125,-0.28458 c -17.31921,-0.34893 -19.30635,-0.63323 -39.86563,-5.7037 -19.64017,-4.84379 -46.77465,0.0798 -58.38877,10.59476 -2.78787,2.52403 -2.94099,2.18549 3.37488,7.46162 2.33501,1.95062 5.93501,5.07739 8,6.94838 2.06499,1.87099 5.94827,4.77602 8.62952,6.45562 5.41258,3.39057 5.5428,3.56196 3.30039,4.34366 -4.4044,1.53539 -7.73034,-0.44885 -19.92539,-11.88737 -3.1625,-2.96631 -6.6104,-6.14457 -7.66201,-7.06279 l -1.91201,-1.6695 -1.83799,1.99744 c -1.01089,1.09859 -2.27574,2.23884 -2.81077,2.53389 -1.67861,0.92568 3.67081,6.36932 22.66822,23.06748 8.60009,7.55923 16.42395,9.77954 24.80456,7.03921 l 3.5,-1.14445 7.5,0.82062 c 5.85604,0.64074 8.38887,0.70867 11.55516,0.30991 2.82345,-0.35559 10.72064,-0.32759 26,0.0922 12.06966,0.33158 25.60109,0.69199 30.06984,0.80092 8.70492,0.21218 9.7138,0.5868 6.77267,2.51487 -1.76506,1.15709 -70.56682,1.23118 -78.90913,0.085 -2.7255,-0.37447 -4.32758,-0.31078 -7.15769,0.28455 -2.00539,0.42185 -5.31898,0.76701 -7.36351,0.76701 -2.38725,0 -3.71731,0.19829 -3.71731,0.5542 0,0.72181 -1.96897,0.23744 -5.44257,-1.33887 -3.15583,-1.4321 -8.29095,-5.66928 -19.17892,-15.82524 -4.33972,-4.04794 -9.72491,-8.84107 -11.96711,-10.65138 l -4.07672,-3.29149 -0.91069,1.43834 c -0.50088,0.79109 -1.47618,1.74098 -2.16734,2.11088 -1.92271,1.029 -1.57403,1.79443 2.61835,5.74781 2.13125,2.00974 7.75993,7.33321 12.50817,11.82991 15.33872,14.52618 18.49774,17.19121 23.11683,19.50196 2.68464,1.34302 5.3706,3.19383 7.29247,5.02499 2.76062,2.63034 3.24696,2.89944 5.25,2.90481 2.19536,0.006 13.06567,0.95018 23.42653,2.03502 2.9842,0.31246 6.51824,0.46831 7.85341,0.34633 1.33518,-0.12199 3.89009,0.0633 5.67759,0.41168 3.03468,0.5915 18.38826,2.22132 30.11625,3.19691 6.62902,0.55143 14.57245,0.19109 17.96067,-0.81475 z m -80.57692,-10.72044 c -1.5125,-0.4829 -3.93125,-1.03502 -5.375,-1.22695 -2.72813,-0.36266 -3.08799,-0.83001 -1.87406,-2.43382 1.50407,-1.98714 104.79394,-0.74984 106.04244,1.27028 1.24475,2.01405 -1.5842,2.13928 -48.79338,2.15998 -31.64295,0.0138 -45.55071,0.18352 -46.25,0.56418 -0.76017,0.41379 -1.65952,0.33377 -3.75,-0.33367 z m 23.5,-26.47134 c -1.2375,-0.21617 -3.9375,-1.19021 -6,-2.16454 -3.37895,-1.59621 -7.43895,-2.70816 -14.02734,-3.8418 -5.62255,-0.96745 -7.76632,-2.12445 -5.98091,-3.22789 1.47364,-0.91076 17.77959,1.41371 21.00825,2.99481 3.95673,1.93763 6.99977,2.9309 12.25,3.99851 6.10342,1.24109 7.15347,1.84539 4,2.30199 -3.2237,0.46677 -8.38885,0.43873 -11.25,-0.0611 z M 443.01932,605.2113 c -7.23437,-1.04729 -7.39691,-1.37873 -0.89353,-1.822 5.77676,-0.39375 8.97835,-0.15017 14.45304,1.0996 7.28331,1.66264 -3.20479,2.22141 -13.55951,0.7224 z m -7.65965,58.66799 c 8.53002,-1.69321 9.0408,-3.22728 2.25,-6.75768 -5.92483,-3.08019 -9.72728,-5.9556 -17.45541,-13.19977 -15.71034,-14.72648 -25.37355,-23.25535 -26.36076,-23.26632 -0.3545,-0.004 -4.43383,3.98785 -4.43383,4.33867 0,1.34393 17.79715,18.09776 29.06735,27.36332 3.3152,2.72553 7.75002,6.59534 9.85515,8.59957 2.13193,2.02975 4.15975,3.56111 4.5775,3.45682 0.4125,-0.10298 1.5375,-0.34355 2.5,-0.53461 z m 168.47544,-37.92267 c 9.79902,-7.91725 37.13927,-33.66732 38.03024,-35.81832 2.48869,-6.00824 -4.03816,-6.71795 -11.48811,-1.24919 -1.27596,0.93664 -3.57129,2.17118 -5.10074,2.74342 -1.52944,0.57224 -3.12425,1.42947 -3.54403,1.90496 -1.90915,2.16254 -14.28584,21.42622 -16.13579,25.11452 -0.75864,1.5125 -2.35981,4.18241 -3.55817,5.93313 -3.39933,4.96619 -3.01531,5.25933 1.7966,1.37148 z m -4.53719,-6.53477 c 1.39007,-2.60158 3.5181,-6.25783 4.72896,-8.125 2.95158,-4.55137 9.58807,-15.34452 12.8478,-20.89484 1.45359,-2.475 5.16829,-8.6625 8.25489,-13.75 7.76428,-12.79748 8.28585,-13.98788 6.43921,-14.69651 -5.44878,-2.09089 -12.90227,4.19919 -25.70911,21.69621 -7.03641,9.61332 -14.34256,18.81279 -17.60258,22.16413 l -3.85258,3.96049 3.10258,3.8249 c 10.17744,12.54689 8.61027,11.77325 11.79083,5.82062 z m -88.84363,0.60516 c -0.23949,-4.83504 0.17027,-4.64561 -9.71756,-4.49224 -9.44632,0.14653 -9.12044,0.0794 -8.69134,1.78911 0.74558,2.97063 8.65245,5.99907 16.32637,6.25321 l 2.26208,0.0749 z m 37.84645,-9.828 c 0.54534,-0.34539 0.47276,-0.50696 -0.34421,-0.76626 -5.36815,-1.70379 -6.94129,-9.62114 -2.82201,-14.20276 l 2.22077,-2.47004 -5.37281,0.22518 c -8.5203,0.3571 -7.62281,-0.72331 -7.62281,9.1764 v 8.49048 l 6.625,-0.008 c 3.64375,-0.004 6.93598,-0.20462 7.31607,-0.44534 z m 8.08533,-3.95575 c 3.15253,-3.15254 3.24898,-6.66776 0.26962,-9.8268 -3.03639,-3.21951 -6.25435,-2.24643 -8.36727,2.53017 -2.75312,6.22389 3.51885,11.87543 8.09765,7.29663 z m -97.0264,-52.98432 c -3.73253,-3.06585 -6.22436,-5.87686 -15.05029,-13.6743 -7.55333,-6.67313 -15.62058,-14.15715 -23.69971,-21.98633 -3.85,-3.73089 -8.0125,-7.65293 -9.25,-8.71565 -1.2375,-1.06271 -5.0378,-4.6431 -8.44511,-7.95643 -3.4073,-3.31332 -6.28824,-5.76265 -6.40208,-5.44295 -0.80657,2.26506 14.37733,24.83559 17.33033,28.16873 2.65228,2.99371 5.80472,6.29834 8.81623,9.30214 16.1655,16.12411 37.14123,21.9627 38.45063,22.10729 0.275,0.0251 -1.75,-1.8025 -1.75,-1.8025 z m 20.02395,-1.11975 1.15718,-0.6193 -2.21998,-2.05894 c -4.57904,-4.24686 -11.78077,-10.72222 -13.71115,-12.32823 -1.1,-0.91517 -3.35,-2.9495 -5,-4.52074 -1.65,-1.57124 -4.28619,-3.94876 -5.85821,-5.28339 -2.67285,-2.26921 -19.68608,-18.17089 -25.94746,-24.2522 -1.54312,-1.49874 -5.36812,-5.05585 -8.5,-7.9047 -3.13188,-2.84884 -7.49433,-6.89483 -9.69433,-8.99108 -3.40498,-3.24441 -15.43227,-14.07739 -19.1758,-17.27164 l -1.1638,-0.99304 0.32451,1.99304 c 2.5108,15.42053 3.42605,17.05737 15.51509,27.74742 7.55299,6.67893 11.37065,10.18886 17.45519,16.04819 3.59965,3.46641 7.78231,7.37792 9.29481,8.69224 1.5125,1.31432 6.84597,6.43748 12,11.22791 2.07054,1.92447 13.53959,11.96949 15.21617,13.42067 3.33064,2.88289 15.70723,6.98409 20.30778,5.09379 z m 80.09584,-3.62911 c 3.09662,-3.10305 6.86606,-6.6468 8.37654,-7.875 8.78596,-7.14398 29.7923,-26.18949 45.55259,-41.30049 4.34092,-4.16208 9.19949,-8.55388 10.79683,-9.75956 3.96914,-2.9959 6.37278,-8.95461 7.44886,-18.46595 l 0.35806,-3.16483 -2.95133,2.46582 c -1.62324,1.3562 -6.77634,6.1843 -11.45134,10.72911 -4.675,4.54482 -11.51666,10.9632 -15.2037,14.26307 -3.68704,3.29987 -8.86204,7.96893 -11.5,10.3757 -2.63796,2.40676 -7.8338,7.00551 -11.5463,10.21943 -3.7125,3.21392 -9.08924,7.99475 -11.94831,10.62406 -2.85907,2.62931 -6.45907,5.88146 -8,7.22699 -1.54093,1.34552 -5.38919,4.8547 -8.55169,7.79817 -3.1625,2.94346 -6.59375,6.08463 -7.625,6.98038 -3.12756,2.71659 -1.50519,3.92075 6.72143,4.9888 1.73447,0.22518 3.31998,0.43795 3.52336,0.47283 0.20339,0.0348 2.90339,-2.47547 6,-5.57853 z m -0.43836,6.14297 c 1.90192,-0.48335 2.86589,0.86489 20.59357,-5.46033 0.34225,-0.12211 2.19349,-1.34401 4.29386,-2.42541 4.85447,-2.49937 11.75948,-7.47645 15.655,-11.28402 1.66438,-1.6268 2.57614,-2.64811 2.02614,-2.26957 -0.91736,0.63137 -0.94367,0.61639 -0.31834,-0.18126 0.37491,-0.47822 0.86046,-0.75898 1.07901,-0.62391 0.97931,0.60524 12.29079,-14.74243 16.09833,-21.84257 3.46715,-6.46541 7.29233,-15.41402 6.58889,-15.41402 -0.49324,0 -7.7267,6.44303 -17.34548,15.45008 -5.16868,4.83995 -11.03313,10.26242 -13.03212,12.04992 -1.99898,1.7875 -6.99809,6.2875 -11.10911,10 -4.11103,3.7125 -9.87959,8.74185 -12.81902,11.17633 -2.93943,2.43448 -5.5837,5.13788 -6.19569,5.75 -2.02943,2.02983 -6.18222,5.24431 -5.51504,5.07476 z m 33.68524,-14.56309 c 0.33917,-0.34171 0.74262,-0.49533 0.89656,-0.34139 0.15395,0.15395 -0.12355,0.43353 -0.61666,0.62129 -0.7126,0.27134 -0.77003,0.21391 -0.2799,-0.2799 z m 6.38333,-5.43795 c 0.16996,-0.275 0.53402,-0.5 0.80902,-0.5 0.275,0 0.36094,0.225 0.19098,0.5 -0.16996,0.275 -0.53401,0.5 -0.80901,0.5 -0.275,0 -0.36095,-0.225 -0.19099,-0.5 z m -60.15725,10.625 c 10.13241,-8.67675 9.92719,-8.51757 9.66977,-8.25 l 3.48748,-3.625 -0.25,-18.10477 -0.25,-18.10476 -2.37468,2.69392 c -11.21623,12.72412 -16.62052,30.9175 -13.03757,43.89061 0.91081,3.29784 0.8254,3.15239 2.755,1.5 z m -53.09275,-3.93789 c 0,-1.39522 -4.48582,-8.5879 -11.06388,-14.35986 -2.32851,-2.04315 -4.42906,-4.2289 -6.37116,-5.82806 -2.71954,-2.23931 -8.47083,-7.99919 -9.59092,-7.99919 -0.2709,0 -0.47404,2.43399 -0.47404,5.67991 v 5.67991 l 4.625,4.16453 c 11.29555,10.17094 10.09642,9.25089 20.32009,17.25398 1.06893,0.83677 1.05914,-0.14497 1.78018,-1.71074 0.4261,-0.92532 0.77473,-2.22154 0.77473,-2.88048 z m 0.43407,-11.18711 c -0.97337,-9.83529 -4.32263,-17.82552 -11.04983,-26.36128 l -3.63424,-4.61127 -0.39639,4.86127 c -0.51844,6.35791 -0.18957,13.53866 0.69576,15.19178 0.57153,1.06716 14.51804,15.9065 14.77772,15.72375 0.0424,-0.0299 -0.13447,-2.19175 -0.39302,-4.80425 z m 74.17987,-3.86327 3.88606,-3.86327 -0.0677,-9.51173 c -0.0373,-5.23145 -0.20599,-13.0334 -0.375,-17.33767 l -0.30729,-7.82594 -3.875,3.28249 -3.875,3.28248 v 17.91845 c 0,9.85515 0.16377,17.91846 0.36394,17.91846 0.20017,0 2.11267,-1.73847 4.25,-3.86327 z m -105.64275,-24.21797 0.0288,-15.33124 -4.04433,-2.33277 c -4.95218,-2.85641 -4.33829,-4.63167 -4.51495,13.05652 l -0.15043,15.06127 3.97986,4.38388 3.97985,4.38388 0.34618,-1.94515 c 0.1904,-1.06983 0.35915,-8.84421 0.375,-17.27639 z m 118.05737,13.45624 3.9459,-3.625 0.0127,-15.625 c 0.007,-8.59375 -0.0884,-15.625 -0.21216,-15.625 -0.12372,0 -1.23137,0.67923 -2.46145,1.5094 -1.23008,0.83018 -3.04136,1.8457 -4.02507,2.25671 l -1.78853,0.74731 v 16.99329 c 0,9.34631 0.1311,16.99329 0.29133,16.99329 0.16023,0 2.06698,-1.63125 4.23723,-3.625 z m -105.28181,-10.74891 -0.35415,-8.62391 -2.71006,-2.47685 c -1.49054,-1.36226 -3.34461,-2.92868 -4.12016,-3.48092 l -1.4101,-1.00408 -0.32411,6.35484 c -0.17826,3.49515 -0.32502,7.72797 -0.32614,9.40626 l -0.002,3.05142 4.625,4.12901 c 5.51777,4.92604 5.15013,5.51116 4.62175,-7.35577 z m -25.29938,-11.14878 -0.008,-13.36482 -3.8445,-1.73074 -3.8445,-1.73075 -0.30965,3.5495 c -0.17031,1.95222 -0.33906,7.55856 -0.375,12.45853 l -0.0654,8.90904 3.875,3.85186 c 4.84647,4.81753 4.5833,5.50491 4.57237,-11.94262 z m 146.54363,-4.5728 c 0.0101,-13.75481 0.13766,-13.33129 -3.57964,-11.87841 -4.38981,1.71574 -4.13932,0.79079 -4.33448,16.00537 -0.21376,16.66534 -0.49571,15.87757 4.16264,11.63055 l 3.74248,-3.41202 z m -158.491,-2.35933 v -11.45482 l -3.84664,-1.29332 c -4.84946,-1.63049 -4.63625,-2.01433 -4.6457,8.36361 l -0.008,8.41066 2.57512,2.33934 c 1.41631,1.28664 3.16006,2.94933 3.875,3.69487 0.71493,0.74554 1.46863,1.36429 1.67488,1.375 0.20625,0.0107 0.375,-5.13519 0.375,-11.43534 z m 168.60201,5.6306 1.35201,-1.03353 0.29587,-9.6334 c 0.28038,-9.129 0.24886,-9.61532 -0.60201,-9.28809 -0.49383,0.18993 -2.29271,0.79627 -3.99751,1.34744 l -3.09964,1.00213 -0.3493,2.32927 c -0.39808,2.65462 0.0694,18.42136 0.5861,19.7679 0.29149,0.75962 0.63896,0.5737 2.40164,-1.28504 1.13346,-1.19523 2.66924,-2.63824 3.41284,-3.20668 z M 417.70509,471.33075 c -0.8471,-0.84709 -21.10564,-5.4398 -21.73649,-4.92776 -0.19522,0.15845 5.77094,5.85127 14.39107,13.73176 l 7.25,6.62792 0.1384,-7.62527 c 0.0761,-4.19389 0.0568,-7.70688 -0.043,-7.80665 z m 193.30618,9.39992 c 3.21662,-3.25673 5.8484,-6.19501 5.8484,-6.52951 0,-0.33449 0.22607,-0.46845 0.50237,-0.29769 0.46808,0.28929 8.49677,-6.62358 8.49736,-7.31639 3.2e-4,-0.37192 -7.29928,0.90143 -8.74973,1.52631 -0.55,0.23695 -3.4688,0.92273 -6.48623,1.52395 -3.01743,0.60123 -5.66118,1.20127 -5.875,1.33342 -0.51636,0.31912 -0.50379,15.68125 0.0128,15.68125 0.22088,0 3.03338,-2.6646 6.25,-5.92134 z m -134.27722,-9.09052 1.62437,-0.58553 -1.04148,-1.46263 c -4.46353,-6.26846 -30.83719,-3.92284 -30.20727,-3.36276 0.55,0.30074 2.125,1.29279 3.5,2.20455 5.40332,3.58291 20.08191,5.38449 26.12438,3.20638 z m 100.84701,-7.68548 c -8.95145,0.18723 -30.81067,2.25183 -33.46475,5.18848 -1.28956,1.42686 -0.2646,2.31805 3.18588,2.77007 1.26911,0.16626 2.63182,0.47829 3.05748,0.49595 17.08907,0.7088 27.22139,-8.4545 27.22139,-8.4545 z m 0.74642,-7.15515 c 0.72962,-21.28977 0.77325,-22.84209 2.18313,-24.15258 2.13754,-1.98688 1.70761,1.31066 1.58489,23.73661 -0.0316,5.76649 0.0733,5.71107 5.31615,0.58489 11.08168,-10.83514 19.19955,-27.37491 22.18039,-45.19148 0.57518,-3.43788 -1.04203,-2.18956 -16.23237,12.52965 -4.5375,4.39677 -10.10246,9.54368 -12.36658,11.43759 -2.26411,1.8939 -7.21411,6.33047 -11,9.85903 -3.78588,3.52856 -9.24592,8.43257 -12.13342,10.8978 -8.37898,7.15365 -8.58667,6.9263 2.5,6.07195 10.02879,-0.77282 17.73063,1.14734 17.96781,-5.77346 z m -94.38289,7.06629 c 1.69681,-5.00735 1.01775,-17.42222 -1.22619,-21.46385 -2.66079,-4.79243 -1.9241,-3.52705 -8.6689,-12.75701 l -2.90632,-2.74299 -0.42515,2.25 c -0.23383,1.2375 -0.29544,7.875 -0.1369,14.75 l 0.28825,12.5 4.34172,4.125 c 4.17158,3.96335 4.51359,4.28804 5.91816,5.22292 2.05929,1.37065 1.78884,1.14513 2.81533,-1.88407 z m 56.18353,1.72802 c 0.18471,-0.58198 0.0497,-6.14508 -0.30005,-12.36247 l -0.63589,-11.30433 -1.44609,4.23746 c -2.27579,6.66874 -2.00162,14.37392 0.69787,19.61247 0.60607,1.17612 1.27587,1.10329 1.68416,-0.18313 z m -85.92528,-3.01919 c 0.56535,-0.051 2.7239,-0.46107 6.78293,-0.29226 8.70055,0.36186 9.23621,0.14122 5.97024,-2.45918 -1.41732,-1.12849 -6.23756,-5.54252 -10.71164,-9.80897 -4.47408,-4.26644 -10.17614,-9.52457 -12.67123,-11.68472 -7.86555,-6.80968 -20.86131,-18.55486 -28.13497,-25.42755 l -3.7042,-3.5 0.36206,3 c 0.80586,6.67725 4.41098,17.91187 7.34417,22.88657 0.78071,1.32409 1.41947,2.65908 1.41947,2.96666 0.84311,1.51618 2.66496,4.07491 3.855,5.79147 3.04591,4.40705 2.06978,2.90196 4.68287,6.57131 0.95645,1.34306 9.59642,10.03371 11.80657,11.18042 3.20506,1.68799 6.54402,1.35895 12.99873,0.77625 z m 94.31224,-4.32736 3.37859,-3.40468 -0.22955,-8.47032 c -0.12625,-4.65868 -0.2464,-11.05601 -0.267,-14.21629 l -0.0375,-5.74597 -3.76859,3.76859 -3.76859,3.76859 -0.5345,4.91875 c -0.38457,3.53904 -0.37897,6.40781 0.0199,10.22738 0.30496,2.91974 0.55384,6.58398 0.55309,8.14273 -0.002,5.38074 0.26113,5.43804 4.65404,1.01122 z m -81.68771,-19.72032 -0.0323,-14.125 -4.15333,-3.05938 -4.15333,-3.05938 -0.31437,3.00773 c -0.44266,4.2352 -0.39281,23.8596 0.0606,23.86786 0.20625,0.004 2.175,1.68083 4.375,3.72684 2.2,2.04601 4.05625,3.73044 4.125,3.74317 0.0688,0.0128 0.11047,-6.33309 0.0927,-14.10184 z m 93.52728,9.44221 4.00502,-3.43278 v -13.44222 c 0,-7.39322 -0.12767,-13.44221 -0.28372,-13.44221 -0.15605,0 -1.5431,1.02588 -3.08235,2.27974 -1.53924,1.25386 -3.43657,2.60964 -4.21627,3.01284 l -1.41766,0.7331 v 14.02882 c 0,9.03656 0.17614,13.96952 0.49498,13.86216 0.27224,-0.0917 2.29724,-1.71142 4.5,-3.59945 z m -106.28981,-19.54761 -0.35793,-12.33396 -3.54862,-1.82754 c -1.95174,-1.00514 -4.17043,-2.10609 -4.93043,-2.44655 l -1.38181,-0.61901 0.0774,10.10373 0.0774,10.10373 4.98055,4.90719 c 6.06536,5.97602 5.51073,6.83659 5.08343,-7.88759 z m 119.79483,7.28863 3.75,-3.45951 0.16186,-10.29936 c 0.10995,-6.99662 -0.007,-10.29936 -0.36594,-10.29936 -0.29028,0 -2.44436,0.88546 -4.78685,1.96769 l -4.25907,1.9677 v 12.29989 c 0,14.20511 -0.5579,13.41158 5.5,7.82295 z m 24.21244,-22.82229 c 6.0889,-5.70011 7.26397,-7.01513 6.38418,-7.14451 -2.83359,-0.41672 -20.5685,3.18045 -21.81222,4.42417 -0.55638,0.55638 -1.32694,15.96372 -0.88324,17.66041 0.2164,0.82751 0.95726,0.26086 4.55364,-3.48291 2.36236,-2.45917 7.6533,-7.61489 11.75764,-11.45716 z m -158.4597,-1.59705 c -0.34392,-1.89212 -3.32516,-3.04244 -11.42944,-4.41005 -2.51531,-0.42446 -5.79207,-0.98709 -7.28169,-1.2503 -7.04781,-1.24528 -6.90632,-0.68232 1.70839,6.79736 9.76143,8.47531 15.86564,14.05865 16.45124,15.04749 0.61199,1.03338 1.09652,-13.18591 0.5515,-16.1845 z m 112.45973,-5.44102 c 13.52963,-3.29738 25.28753,-17.38221 25.28753,-30.29204 0,-2.78443 -0.4002,-2.54647 -7.93679,4.71917 -3.77964,3.64375 -9.10882,8.6369 -11.84264,11.09588 -17.32879,15.58675 -18.07153,17.53889 -5.5081,14.47699 z m -5.77231,-10.86754 c 2.09541,-2.15581 3.95068,-4.18081 4.12282,-4.5 0.35021,-0.64936 0.92451,-16.83033 0.59735,-16.83033 -0.69384,0 -6.03918,3.85253 -7.82981,5.64316 -3.62592,3.62593 -6.21588,12.49435 -5.55981,19.03766 0.53744,5.36011 0.001,5.56719 8.66945,-3.35049 z m 16.20206,-14.55438 c 4.67684,-4.28046 14.08244,-14.21796 13.7611,-14.53931 -0.49842,-0.49841 -17.867,3.696 -20.02832,4.83673 -0.77603,0.40958 -0.875,1.3414 -0.875,8.23867 v 7.77685 l 1.51722,-1.27665 c 0.83446,-0.70216 3.36571,-2.96849 5.625,-5.03629 z m -54.25139,-0.80928 c 0.0569,-1.83096 -0.0434,-1.16438 0.15114,-7.16247 0.05,-1.54121 -0.042,-1.91711 -0.042,-3.81631 0,-3.76481 0.19996,-3.40523 -4.99794,-8.98789 -1.15221,-1.2375 -2.44585,-2.92394 -2.87475,-3.74764 l -0.77983,-1.49765 -1.14794,2.99765 c -3.42846,8.9528 -0.46435,20.27354 6.80046,25.9728 3.28095,2.57391 2.69175,2.65247 2.89083,-3.75849 z m 9.06491,2.65759 c 4.39274,-4.39274 6.27748,-9.45127 6.28712,-16.87426 0.009,-6.8414 -1.42744,-11.60685 -2.48963,-8.26016 -0.17279,0.54441 -0.47104,0.93816 -0.66276,0.875 -0.19173,-0.0632 -1.75369,1.27686 -3.47104,2.97783 l -3.12244,3.09268 -0.328,10.53232 c -0.37825,12.14534 -0.48538,11.92872 3.78675,7.65659 z m -8.45574,-31.15377 c 0,-10.25013 0.10924,-10.07895 -3.57068,-5.59549 -4.98807,6.07724 -5.01661,6.53487 -0.67932,10.89356 1.7875,1.79632 3.25,3.49653 3.25,3.77825 0,0.28171 0.225,0.37315 0.5,0.20319 0.30327,-0.18743 0.5,-3.83853 0.5,-9.27951 z m 11.01749,1.97589 c 1.43588,-0.95339 0.81629,-2.46697 -2.88827,-7.05567 l -2.87922,-3.56638 -0.3748,2.96283 c -0.20614,1.62956 -0.2406,5.48768 -0.0766,8.5736 l 0.29824,5.61075 2.43431,-2.91331 c 1.33886,-1.60232 2.9077,-3.22764 3.48631,-3.61182 z m 17.94405,222.59208 c -2.54332,-2.54332 -1.0594,-6.53846 2.42858,-6.53846 3.40705,0 5.02766,4.5821 2.41533,6.82913 -1.80523,1.5528 -3.07674,1.4765 -4.84391,-0.29067 z m -95.13404,-5.95283 c -1.56618,-1.73061 -0.68927,-3.58563 1.69501,-3.58563 2.46905,0 3.95424,2.94207 2.01036,3.98241 -1.44195,0.7717 -2.77732,0.62871 -3.70537,-0.39678 z m -12.78559,-8.29103 c -2.18141,-2.322 -0.0428,-4.42026 2.44883,-2.40265 0.90334,0.73148 1.08591,1.23459 0.82511,2.27369 -0.4231,1.68576 -1.76186,1.7385 -3.27394,0.12896 z M 411.5858,546.32895 c -1.44613,-1.5604 -1.4558,-1.62659 -0.44778,-3.06574 1.13348,-1.61826 3.02195,-1.44778 3.95527,0.35707 0.84886,1.6415 0.59641,2.81987 -0.75957,3.54557 -1.26915,0.67922 -1.3718,0.64796 -2.74792,-0.8369 z m 195.87387,0.22301 c -1.08005,-1.08005 0.14833,-4.9 1.57569,-4.9 0.87504,0 2.82431,2.12555 2.82431,3.07973 0,1.83965 -3.09869,3.12157 -4.4,1.82027 z m 8.5,-9 c -2.14341,-2.14341 1.21469,-6.79166 3.72045,-5.14982 1.56611,1.02615 1.4878,1.86395 -0.37224,3.98242 -1.64921,1.87834 -2.38183,2.13378 -3.34821,1.1674 z m -214.01684,-1.69803 c -1.82086,-1.27538 -1.35118,-3.90161 0.73403,-4.10434 2.48891,-0.24198 4.45789,2.55586 2.8971,4.11665 -1.00154,1.00154 -2.1894,0.99751 -3.63113,-0.0123 z m 223.51684,-14.80197 c -0.89096,-0.89097 -0.73781,-1.59622 0.62456,-2.8761 2.01612,-1.89405 3.57808,-0.19733 2.47195,2.6852 -0.35769,0.93212 -2.23929,1.04812 -3.09651,0.1909 z m 3.73334,-7.73334 c -0.87577,-0.87577 0.21668,-4.387 1.52061,-4.88736 2.02223,-0.77601 3.37422,1.92585 2.12846,4.25357 -0.50545,0.94445 -2.91919,1.36368 -3.64907,0.63379 z M 490.47415,501.81736 c -0.34953,-0.14063 -0.96828,-0.8992 -1.375,-1.6857 -1.98608,-3.84065 2.95933,-7.3263 6.03325,-4.25238 3.24748,3.24748 -0.25349,7.71032 -4.65825,5.93808 z m 36.92989,-0.73292 c -2.07462,-2.22684 -1.78795,-5.09455 0.67028,-6.70525 2.23434,-1.46399 6.28535,1.12486 6.28535,4.01673 0,2.89079 -4.9755,4.81394 -6.95563,2.68852 z m 85.65563,-49.63243 c -3.45753,-3.45753 -1.292,-8.76226 3.58785,-8.78888 2.78129,-0.0152 4.27269,1.59118 4.59539,4.94961 0.48568,5.05456 -4.5877,7.4348 -8.18324,3.83927 z m -211.6482,-0.5674 c -2.05425,-2.33966 -2.14036,-5.00768 -0.22349,-6.92455 5.12092,-5.12091 11.56532,1.58213 6.87739,7.15341 -1.90997,2.26988 -4.53939,2.17944 -6.6539,-0.22886 z m 229.52012,-4.89595 c -1.79999,-2.16886 -2.67019,-7.03838 -1.47192,-8.23665 1.94561,-1.94561 3.98272,-0.44308 4.89037,3.60702 0.82489,3.68081 -1.54369,6.88858 -3.41845,4.62963 z m -243.19692,-0.8767 c -1.6249,-0.94642 -0.5353,-8.02095 1.28949,-8.37237 1.97369,-0.3801 3.37013,1.26031 3.02319,3.55136 -0.71508,4.72204 -2.00565,6.16473 -4.31268,4.82101 z m 3.17738,-14.417 c -1.01342,-0.6417 -0.47202,-3.63505 1.38914,-7.68047 0.85717,-1.86314 1.55848,-3.56446 1.55848,-3.78072 0,-0.85133 2.04704,-2.53233 2.75358,-2.2612 1.10922,0.42564 0.91439,2.48984 -0.71285,7.55271 -2.15503,6.705 -2.82815,7.53752 -4.98835,6.16968 z m 235.4708,-2.99965 c -1.15529,-2.15866 -2.5808,-9.69824 -1.91369,-10.12155 2.07426,-1.31623 2.97306,-0.34432 4.86922,5.26524 1.29667,3.83608 1.37352,4.38935 0.70286,5.06001 -1.05282,1.05282 -3.0453,0.94188 -3.65839,-0.2037 z m -199.6417,-34.71524 c -2.2955,-2.1274 -2.20339,-5.4357 0.18877,-6.77994 3.7756,-2.12164 7.14603,3.67418 4.09632,7.04407 -1.12274,1.24061 -2.77107,1.13901 -4.28509,-0.26413 z m 163.02902,-0.34065 c -1.79725,-1.79724 -1.65558,-3.53909 0.4399,-5.4086 3.26942,-2.91684 7.48647,0.88563 5.4181,4.88543 -1.30367,2.52101 -3.65057,2.73061 -5.858,0.52317 z m 13.75079,-6.64799 c -2.88746,-3.67736 -3.10024,-6.84827 -0.45879,-6.83711 0.8349,0.003 3.70022,2.85923 4.58437,4.56897 1.46459,2.83222 -2.13065,4.80879 -4.12558,2.26814 z m -188.12894,-0.17304 c -1.3188,-0.92372 -1.31721,-2.66938 0.004,-4.34895 1.21314,-1.54227 2.47833,-1.68251 3.63621,-0.40306 2.26267,2.50022 -0.92113,6.65648 -3.64016,4.75201 z m 9.10674,-9.31529 c -1.60919,-1.78919 -1.71914,-2.24594 -0.915,-3.80097 1.23259,-2.38358 4.14835,-2.65699 5.30414,-0.49737 0.7388,1.38045 0.20592,2.64997 -1.73313,4.12895 l -1.6657,1.27049 z m 170.24848,-0.63049 c -1.83178,-0.99408 -2.50498,-2.34669 -1.92594,-3.86967 0.86484,-2.27471 3.13946,-2.01771 4.97657,0.56228 2.16772,3.04428 0.26526,5.10686 -3.05063,3.30739 z m -117.23639,-13.2265 c -1.58239,-0.63725 -2.80524,-3.26613 -2.43565,-5.2362 0.66124,-3.52468 4.81084,-4.74048 7.09927,-2.08002 3.05773,3.55483 -0.42737,9.02222 -4.66362,7.31622 z m 62.22244,-0.98619 c -1.59586,-1.25531 -2.075,-3.1327 -1.35574,-5.31209 1.48354,-4.49515 7.98212,-3.25517 7.98212,1.52304 0,4.1916 -3.54072,6.21623 -6.62638,3.78905 z m 17.16475,-10.80236 c -3.6418,-3.06437 -0.10105,-7.11528 3.6442,-4.16926 1.51555,1.19212 1.77091,3.4388 0.53172,4.67799 -1.12879,1.12879 -2.41625,0.97194 -4.17592,-0.50873 z m -96.98888,-0.0272 c -2.36424,-1.65597 -0.55735,-4.81159 2.6224,-4.57984 1.8628,0.13577 2.09481,0.29705 2.23924,1.55669 0.28965,2.52611 -2.81499,4.45669 -4.86164,3.02315 z m 16.82551,-5.72254 c -2.14213,-1.23767 -0.31498,-4.45586 2.52985,-4.45586 1.27894,0 1.6374,0.24425 1.90125,1.29549 0.53512,2.13208 -2.48398,4.28537 -4.4311,3.16037 z m 64.05539,-1.4254 -1.18039,-0.96954 1.02333,-1.0399 c 1.64778,-1.67446 6.15003,0.58044 4.97029,2.48931 -0.51953,0.84061 -3.57665,0.53582 -4.81323,-0.47987 z m -54.20311,-0.75774 c -1.52491,-1.5249 -1.56712,-2.97799 -0.11602,-3.99437 3.02712,-2.12028 6.01207,1.59832 3.38874,4.22165 -1.29456,1.29456 -1.78494,1.26051 -3.27272,-0.22728 z m 45.12958,0.41747 c -0.91154,-0.91154 -0.34853,-3.71543 0.85627,-4.26437 2.64199,-1.20377 5.36732,1.23896 3.93458,3.52657 -0.51628,0.82432 -4.14543,1.38322 -4.79085,0.7378 z"
         id="path1"
         sodipodi:nodetypes="ssssssssssssscsssssssssssscssssssssssssscssssscsssssscssscsssssscsssscsssscsscssscsscssssssssssscssscsssssssssssssscccssscccccsssssssssssssscssscsssscssssssssssssssssscssscsssssssscsscssssssssscsssscsssssssssssscssssssssssssssssssssssssssssssssssssssssssssssssssssssscsssssscsssscssccsssssssssssssssscssssssssscsssssssssssscssssssssssssssssssssssssssssssssssscssscssssssssssssssscsscsscsscccsssccssccssscscssssssssccsscsscsscscccssccssssscsscsscssssscssscssssssscsssssssssssssccssssssssssssssssssssssssssssssssssscssssssscsssscssscssccscssscscccscsssscsssscsssscsscccssssssscssssssssssssssssssssssssscssscsssssssssscssssscsssssssssssssssssssssssssssssssssssssssssssssssssssssssssssssssssssssssssssssssssssssssssssssssssssssscssssssscsssssssssssssssssssssssssscssssssssssscsssssssssss" />
    </g>
  </g>
</svg>
